<?xml version="1.0" encoding="UTF-8" standalone="no"?>
<svg
   xmlns:dc="http://purl.org/dc/elements/1.1/"
   xmlns:cc="http://creativecommons.org/ns#"
   xmlns:rdf="http://www.w3.org/1999/02/22-rdf-syntax-ns#"
   xmlns:svg="http://www.w3.org/2000/svg"
   xmlns="http://www.w3.org/2000/svg"
   xmlns:sodipodi="http://sodipodi.sourceforge.net/DTD/sodipodi-0.dtd"
   xmlns:inkscape="http://www.inkscape.org/namespaces/inkscape"
   inkscape:version="1.0 (4035a4fb49, 2020-05-01)"
   sodipodi:docname="pencila and sharpener.svg"
   id="svg894"
   viewBox="0 0 255.153 214.62321"
   height="214.62321"
   width="255.153"
   y="0"
   x="0"
   version="1.1">
  <title
     id="title2052">Pencil sharpener</title>
  <metadata
     id="metadata900">
    <rdf:RDF>
      <cc:Work
         rdf:about="">
        <dc:format>image/svg+xml</dc:format>
        <dc:type
           rdf:resource="http://purl.org/dc/dcmitype/StillImage" />
        <dc:title>Pencil sharpener</dc:title>
        <cc:license
           rdf:resource="http://creativecommons.org/publicdomain/zero/1.0/" />
      </cc:Work>
      <cc:License
         rdf:about="http://creativecommons.org/publicdomain/zero/1.0/">
        <cc:permits
           rdf:resource="http://creativecommons.org/ns#Reproduction" />
        <cc:permits
           rdf:resource="http://creativecommons.org/ns#Distribution" />
        <cc:permits
           rdf:resource="http://creativecommons.org/ns#DerivativeWorks" />
      </cc:License>
    </rdf:RDF>
  </metadata>
  <defs
     id="defs898" />
  <sodipodi:namedview
     inkscape:current-layer="svg894"
     inkscape:window-maximized="1"
     inkscape:window-y="-8"
     inkscape:window-x="-8"
     inkscape:cy="-54.164792"
     inkscape:cx="183.976"
     inkscape:zoom="0.91851852"
     fit-margin-bottom="0"
     fit-margin-right="0"
     fit-margin-left="0"
     fit-margin-top="0"
     showgrid="false"
     id="namedview896"
     inkscape:window-height="705"
     inkscape:window-width="1366"
     inkscape:pageshadow="2"
     inkscape:pageopacity="0"
     guidetolerance="10"
     gridtolerance="10"
     objecttolerance="10"
     borderopacity="1"
     bordercolor="#666666"
     pagecolor="#ffffff" />
  <g
     transform="translate(-40.024,-324.16479)"
     id="Layer_1">
    <path
       sodipodi:nodetypes="ccccccccccccccccccccccccccccccccccccccccccccccccccccccccccccccccccccccccccccccccccccccccccccccccccccccccccccccccccccccccccccccccccccccccccccccccccccccccccccccccccccccccccccccccccccccccccccccccccccccccccccccccccccccccccccccccccccccccccccccccccccccccccscccccccccccccccccccccccccccccccccccccccccccccccccccccccsccscccccccccccccccccccccccscccccccccccccccccccccccccccccccccccccccccccscccc"
       id="path891"
       fill="#0b0b09"
       d="m 237.083,498.603 c -0.608,0.744 -1.232,1.457 -1.865,2.158 l -34.915,-28.149 -1.256,1.556 34.802,28.057 c -0.526,0.543 -1.058,1.076 -1.599,1.589 l -34.712,-27.984 -2.512,3.113 34.188,27.562 c -11.895,9.744 -25.835,12.474 -34.12,5.695 -10.214,-8.354 -7.971,-27.987 5.006,-43.851 12.978,-15.865 31.777,-21.953 41.99,-13.599 10.212,8.355 7.971,27.989 -5.007,43.853 m -55.967,-77.05 c 0,0 16.671,6.479 31.296,4.293 v 0.04 c 7.067,-0.011 14.35,-1.574 20.38,-5.608 2.976,-2.018 5.638,-4.665 7.29,-7.988 0.791,-1.683 1.398,-3.419 1.438,-5.416 0.014,-1.988 -0.757,-3.837 -1.737,-5.407 -2.033,-3.145 -4.858,-5.488 -7.758,-7.567 -2.916,-2.073 -6.063,-3.806 -9.222,-5.401 l -89.011,-47.262 c 4.864,-2.372 15.263,-7.442 16.333,-7.946 1.145,-0.537 3.141,-0.378 3.876,-0.01 0.459,0.23 6.439,3.328 12.769,6.609 7.27,3.766 14.779,7.658 15.828,8.189 0.129,0.161 0.377,0.666 0.596,1.115 1.525,3.111 5.098,10.395 19.684,20.513 15.896,11.027 39.818,13.889 47.678,14.829 1.05,0.125 2.04,0.244 2.204,0.285 0.784,0.315 8.727,4.855 23.606,13.495 1.285,0.746 2.137,1.242 2.337,1.355 0.627,0.359 2.263,1.889 2.23,3.211 -0.017,0.727 -0.598,1.386 -1.722,1.957 -17.299,8.777 -87.109,41.556 -89.844,42.52 -4.8,1.694 -6.457,1.747 -8.867,0.285 -2.618,-1.586 -22.97,-13.073 -25.5,-14.501 -18.962,-30.957 -63.549,-36.983 -66.915,-37.394 -2.52,-1.34 -27.692,-14.713 -29.408,-15.448 -0.482,-0.206 -0.819,-0.883 -0.801,-1.606 0.005,-0.304 0.095,-1.04 0.757,-1.289 1.722,-0.646 17.027,-8.041 22.049,-10.473 l 5.156,2.892 1.925,-1.2 z m -6.795,-43.43 c -0.532,0.445 -2.969,1.357 -5.959,1.543 -2.146,0.138 -6.098,-0.037 -8.455,-2.695 -1.113,-1.253 -1.537,-2.444 -1.266,-3.54 0.49,-1.981 3.071,-3.234 3.846,-3.569 5.421,3.325 11.123,7.194 11.834,8.261 m -5.213,-11.059 0.092,-0.087 c 3.904,-1.473 8.906,-0.129 11.209,1.296 1.767,1.096 2.545,3.333 2.531,5.065 -0.008,0.925 -0.244,1.352 -0.287,1.396 -0.684,-0.171 -5.997,-3.183 -13.545,-7.67 m -39.411,-23.51 42.852,21.805 c -1.265,0.037 -2.529,0.24 -3.703,0.682 -0.211,0.08 -0.387,0.217 -0.514,0.385 -0.275,0.055 -0.466,0.15 -0.55,0.294 -0.684,1.172 -1.512,3.167 -1.518,4.318 -1.037,-0.659 -2.186,-1.376 -3.472,-2.163 l -0.207,-0.126 -0.227,0.084 c -0.141,0.053 -2.991,1.144 -4.23,3.259 l -0.067,0.003 c -1.092,1.75 -1.342,8.292 1.658,11.458 3,3.167 9.896,4.821 16.305,2.979 8.476,-2.437 8.971,-10.062 8.384,-13.125 -0.089,-0.461 -0.308,-0.935 -0.589,-1.395 -0.061,-0.347 -0.147,-0.698 -0.26,-1.05 l 38.301,19.489 c 3.136,1.515 6.185,3.129 9.033,5.079 2.82,1.938 5.535,4.153 7.373,6.906 0.892,1.373 1.534,2.902 1.544,4.452 0.015,0.754 -0.125,1.569 -0.333,2.37 -0.216,0.795 -0.506,1.573 -0.853,2.329 -1.433,3.02 -3.863,5.55 -6.647,7.504 -5.533,3.846 -12.397,5.515 -19.176,5.694 -14.576,-8.392 -103.632,-56.856 -118.806,-65.112 l 32.259,-14.4 z m -46.414,57.788 v 40.378 h -0.474 l -36.322,-33.173 -1.385,-26.776 6.21,3.907 24.959,15.414 0.216,0.133 0.296,0.004 z m 7,1.464 v 38.914 h -3 v -39.848 l 0.41,0.487 0.347,0.408 0.576,0.01 z m 4,42.747 v -41.998 l 1.631,2.204 0.702,0.008 1.5,0.019 v 39.767 z m 7.833,4.5 v -42.711 l 0.512,0.648 0.429,0.54 0.726,0.009 1.833,0.022 v 41.492 z m 7.5,4.834 v -42.742 l 0.5,0.006 2.167,0.028 v 42.708 z m 5.22,5.333 -0.553,-0.333 v -45.495 l 2,0.017 2.125,0.018 v 45.619 z m 6.666,6 -1.053,-0.633 -0.041,-5.638 v -41.311 l 1.208,0.008 1.667,0.013 v 47.561 z m 4.744,4.833 -0.297,-0.208 v -4.625 h -0.666 v -47.545 l 0.413,0.003 0.974,4.029 1.446,0.012 0.833,0.006 v 48.328 z m 5.256,6.167 -0.219,-0.132 v -6.035 h -0.334 v -45.329 l 2.415,0.805 0.669,3.112 v 47.579 z m 7.781,7.167 h -2.947 l -0.303,-0.183 v -49.186 l 0.948,0.549 2.302,1.331 z m 2,6.596 v -52.927 l 14.214,8.224 18.56,10.633 0.27,0.154 0.275,0.057 c 0.756,0.162 1.492,0.293 2.228,0.408 l 2.319,74.851 c -0.467,-0.301 -0.943,-0.645 -1.44,-1.049 -4.796,-3.899 -30.998,-28.345 -35.426,-32.483 v -7.368 z m 148.869,-86.071 c -9.706,4.169 -19.345,8.485 -29.016,12.731 -9.641,4.316 -19.287,8.625 -28.886,13.038 -9.609,4.387 -19.208,8.799 -28.765,13.306 -4.783,2.248 -9.563,4.497 -14.334,6.803 l -3.575,1.785 -0.91,0.477 -0.486,0.268 -0.279,0.165 -0.256,0.18 -0.125,0.097 -0.008,0.002 c 0.065,-0.014 -0.4,0.181 -0.881,0.225 -2.013,0.221 -4.595,-0.152 -6.898,-0.621 l -18.248,-10.543 -17.6,-10.065 -0.01,-3.873 -0.003,-1.933 -1.923,0.004 -1.089,0.004 -0.014,-3.248 -1.24,-0.447 -2.283,-0.821 -0.588,-2.055 -0.391,-1.369 -1.395,0.01 -1.416,0.01 -0.669,-2.593 -0.356,-1.375 -1.392,0.01 -3.983,0.03 -0.388,-2.634 -0.223,-1.503 -1.49,0.013 -3.824,0.032 -0.846,-1.339 -0.506,-0.8 -0.907,0.011 -3.591,0.045 -0.565,-2.246 -0.303,-1.209 -1.208,0.015 -4.811,0.059 -1.736,-2.082 -0.45,-0.541 -0.669,0.008 -4.339,0.054 -1.776,-2.249 -0.42,-0.53 -0.632,0.01 -5.3,0.091 -0.801,-0.886 -0.378,-0.416 -0.521,0.009 -10.414,0.179 -16.851,-9.332 -8.557,-4.736 -6.535,-3.548 -0.054,-1.068 c 0.199,-1.856 0.657,-3.267 3.91,-4.416 3.861,-1.362 21.644,-10.189 26.03,-12.373 l 3.579,2.008 c -7.776,3.761 -19.257,9.279 -20.625,9.793 -1.235,0.463 -2.022,1.657 -2.056,3.116 -0.037,1.556 0.772,2.958 2.013,3.49 1.354,0.58 19.838,10.369 29.423,15.463 l 0.171,0.091 0.194,0.021 c 0.465,0.05 46.726,5.31 65.751,36.691 l 0.135,0.224 0.229,0.129 c 0.228,0.129 22.965,12.957 25.67,14.597 1.517,0.918 2.873,1.324 4.377,1.324 1.722,0 3.636,-0.532 6.193,-1.433 2.869,-1.012 71.893,-33.395 90.084,-42.624 2.281,-1.157 2.791,-2.646 2.817,-3.69 0.058,-2.32 -2.199,-4.403 -3.238,-4.998 -0.199,-0.113 -1.047,-0.606 -2.324,-1.347 -15.924,-9.247 -23.075,-13.325 -23.905,-13.637 -0.3,-0.113 -0.841,-0.181 -2.673,-0.4 -7.738,-0.926 -31.289,-3.742 -46.775,-14.485 -14.16,-9.824 -17.571,-16.781 -19.027,-19.752 -0.516,-1.052 -0.828,-1.689 -1.428,-1.988 -0.707,-0.353 -8.764,-4.528 -15.873,-8.212 -6.336,-3.283 -12.322,-6.385 -12.795,-6.621 -1.293,-0.646 -3.922,-0.809 -5.621,-0.011 -1.209,0.569 -13.707,6.664 -17.666,8.597 l -0.734,-0.39 -0.666,-2.309 c 4.575,-1.803 16.136,-6.401 17.956,-7.519 1.405,-0.866 5.938,-1.006 7.569,-0.001 2.164,1.333 28.996,16.097 34.244,18.983 l 0.715,4.113 2.742,0.806 0.328,3.115 3.576,1.192 0.553,3.365 3.85,1.061 0.998,2.851 h 4.316 l 0.945,3.073 5.055,0.633 0.848,2.423 5.563,1.036 1.238,2.335 h 5.746 l 1.25,2.375 h 5.086 l 1.375,2.25 h 7.466 l 1.25,1.75 h 9.361 l 37.82,22.259 0.119,0.207 c 0,0.339 -0.001,0.748 -0.001,1.208 l -0.024,0.018 m 0,71.027 c 0.086,5.004 -0.016,5.973 -1.479,6.949 -3.254,2.133 -88.506,44.897 -96.022,48.165 -1.748,0.759 -3.237,1.361 -4.564,1.81 -0.638,-11.643 -2.14,-64.273 -2.721,-75.726 l 1.136,-0.699 0.842,-0.446 3.502,-1.77 c 4.702,-2.362 9.446,-4.682 14.189,-6.998 l 28.47,-13.888 c 9.499,-4.616 18.961,-9.312 28.434,-13.986 9.407,-4.726 18.852,-9.37 28.237,-14.143 -0.013,12.271 -0.061,60.944 -0.061,67.346 0,1.258 0.019,2.38 0.037,3.386 m 4.997,-0.216 c -0.017,-0.947 -0.034,-1.998 -0.034,-3.17 0,-6.712 0.052,-59.895 0.062,-68.865 0,-1.848 -0.989,-3.58 -2.584,-4.518 l -38.994,-22.95 h -8.147 l -1.25,-1.75 h -7.238 l -1.375,-2.25 h -4.871 l -1.25,-2.375 h -5.755 l -0.958,-1.81 -5.09,-0.946 -0.915,-2.615 -4.92,-0.616 -1.081,-3.513 h -4.463 l -0.692,-1.974 -3.289,-0.908 -0.523,-3.184 -3.385,-1.128 -0.342,-3.243 -2.971,-0.874 -0.593,-3.415 -1.264,-0.695 c -11.275,-6.199 -33.076,-18.216 -34.873,-19.323 -3.385,-2.085 -9.983,-1.737 -12.811,0 -1.109,0.683 -10.289,4.43 -18.523,7.659 l -2.043,0.802 0.407,6.124 -35.542,15.864 -5.394,7.261 -9.334,-5.236 -1.424,0.711 c -7.721,3.861 -23.178,11.464 -26.405,12.605 -5.844,2.061 -6.937,5.774 -7.239,8.78 l -0.022,0.226 1.576,30.457 39.269,35.866 h 6.418 l 0.73,2.19 3.615,1.643 h 2.651 v 1.966 l 4.75,2.534 h 2.916 v 1.391 l 4.067,3.443 h 2.767 v 2.531 l 4.669,2.802 h 1.997 v 3.198 l 4.669,2.802 h 0.831 v 2.229 l 3.721,2.604 h 1.613 v 3.864 l 3.835,2.303 h 0.165 v 4.365 l 4.333,2.6 v 4.056 l 2.667,1.333 v 6.447 l 1,0.936 c 3.171,2.964 31.126,29.074 36.274,33.259 3,2.437 5.867,3.572 9.023,3.572 3.534,0 7.102,-1.427 11.065,-3.15 7.713,-3.354 93.657,-46.494 96.801,-48.589 3.853,-2.57 3.795,-6.001 3.705,-11.196 z" />
  </g>
</svg>
