<svg xmlns="http://www.w3.org/2000/svg" viewBox="0 0 100 120" fill="none" stroke="#222" stroke-width="2.5" stroke-linecap="round" stroke-linejoin="round">
  <!-- Cabeça -->
  <circle cx="50" cy="22" r="14"/>
  <!-- Cabelo -->
  <path d="M36 20 C36 11 64 11 64 20"/>
  <!-- Olhos -->
  <circle cx="44" cy="20" r="2" fill="#222" stroke="none"/>
  <circle cx="56" cy="20" r="2" fill="#222" stroke="none"/>
  <!-- Sorriso -->
  <path d="M44 27 Q50 32 56 27"/>
  <!-- Jaleco corpo -->
  <path d="M34 36 L30 90 L70 90 L66 36 Z"/>
  <!-- Colarinho jaleco -->
  <path d="M44 36 L50 44 L56 36"/>
  <!-- Linhas jaleco -->
  <line x1="44" y1="36" x2="42" y2="60"/>
  <line x1="56" y1="36" x2="58" y2="60"/>
  <!-- Cruz médica no jaleco -->
  <rect x="46" y="50" width="8" height="2.5" rx="1" fill="#222" stroke="none"/>
  <rect x="48.75" y="47.5" width="2.5" height="8" rx="1" fill="#222" stroke="none"/>
  <!-- Braços -->
  <path d="M34 42 L20 62 L26 64 L36 50"/>
  <path d="M66 42 L80 62 L74 64 L64 50"/>
  <!-- Estetoscópio -->
  <path d="M26 64 Q22 72 28 76 Q34 80 36 74"/>
  <circle cx="36" cy="74" r="3"/>
  <!-- Pernas -->
  <path d="M40 90 L38 112 L44 112 L50 98 L56 112 L62 112 L60 90"/>
  <!-- Sapatos -->
  <ellipse cx="41" cy="113" rx="6" ry="3"/>
  <ellipse cx="59" cy="113" rx="6" ry="3"/>
</svg>
